<svg width="58" height="45" viewBox="0 0 58 45" fill="none" xmlns="http://www.w3.org/2000/svg">
<path d="M24.7547 3.2086L22.6502 0C8.08935 9.70538 0 21.4976 0 31.203C0 40.5875 6.95814 45 12.8627 45C20.3049 45 25.5623 38.7419 25.5623 32.1656C25.5623 26.6314 22.003 21.8981 17.2297 20.1321C15.8551 19.6495 14.5608 19.249 14.5608 16.9235C14.5608 13.9561 16.7456 9.54623 24.7547 3.2086ZM56.8688 3.2086L54.7643 0C40.3639 9.70538 32.1141 21.4976 32.1141 31.203C32.1141 40.5875 39.2327 45 45.1373 45C52.6597 45 58 38.7419 58 32.1656C58 26.6314 54.3604 21.8981 49.424 20.1321C48.0494 19.6495 46.8354 19.249 46.8354 16.9235C46.8354 13.9561 49.1004 9.54367 56.8662 3.20604L56.8688 3.2086Z" fill="#151C40"/>
<path d="M54.5039 1.31236L55.6222 3.01734C48.3345 9.10419 45.8979 13.5952 45.8979 16.9235C45.8979 18.2607 46.2545 19.2209 46.9689 19.8989C47.5838 20.4825 48.388 20.7633 49.0103 20.9805C49.0443 20.9924 49.0778 21.0041 49.1107 21.0157C53.6963 22.6573 57.0625 27.0526 57.0625 32.1656C57.0625 38.2668 52.1003 44.0625 45.1373 44.0625C39.6593 44.0625 33.0516 39.983 33.0516 31.203C33.0516 26.6097 35.0091 21.4238 38.8003 16.1486C42.4457 11.0764 47.751 5.97302 54.5039 1.31236ZM0.9375 31.203C0.9375 22.1397 8.41989 10.8445 22.3871 1.30831L23.5032 3.00982C15.9855 9.10411 13.6233 13.5927 13.6233 16.9235C13.6233 18.2785 14.0108 19.2402 14.7486 19.912C15.3693 20.4773 16.1723 20.7566 16.7878 20.9708C16.83 20.9855 16.8713 20.9998 16.9116 21.014C21.3259 22.6506 24.6248 27.0397 24.6248 32.1656C24.6248 38.2792 19.7338 44.0625 12.8627 44.0625C7.39948 44.0625 0.9375 39.9965 0.9375 31.203Z" stroke="#001C45" stroke-opacity="0.08" stroke-width="1.875"/>
</svg>
